<svg width="300" height="300" viewBox="0 0 300 300" fill="none" xmlns="http://www.w3.org/2000/svg">
<path d="M150 300C232.843 300 300 232.843 300 150C300 67.1573 232.843 0 150 0C67.1573 0 0 67.1573 0 150C0 232.843 67.1573 300 150 300Z" fill="white"/>
<path d="M157.923 146.206L96.4015 84.6849L84.6883 72.9717C82.5914 74.75 80.5098 76.5591 78.5311 78.5379C76.5523 80.5167 74.7483 82.5982 72.9648 84.6952L84.6883 96.4187L142.083 153.813L203.609 215.339L215.322 227.053C217.419 225.274 219.501 223.465 221.479 221.486C223.458 219.508 225.262 217.426 227.041 215.329L215.317 203.606L157.918 146.211L157.923 146.206Z" fill="#0C0E10"/>
<path d="M130.204 159.516L77.4923 106.804L65.3936 94.7051C62.1865 99.598 59.5139 104.732 57.2422 110.001L70.0964 122.855L114.369 167.128L177.206 229.965C168.551 232.899 159.413 234.513 150.007 234.513C127.434 234.513 106.218 225.724 90.2591 209.766C83.3207 202.827 77.8881 194.959 73.8843 186.576L58.9434 193.751C63.7438 203.768 70.23 213.179 78.5357 221.484C98.2718 241.22 124.14 251.089 150.007 251.089C163.653 251.089 177.273 248.262 190.019 242.773C195.287 240.506 200.417 237.828 205.315 234.621L193.237 222.538L130.215 159.516H130.204Z" fill="#0C0E10"/>
<path d="M229.913 177.16L185.64 132.888L122.803 70.0506C131.458 67.1159 140.596 65.5021 150.002 65.5021C172.575 65.5021 193.791 74.2908 209.755 90.2493C216.693 97.1878 222.126 105.057 226.13 113.439L241.071 106.264C236.27 96.2473 229.784 86.8366 221.478 78.531C201.742 58.7948 175.869 48.9268 150.002 48.9268C136.356 48.9268 122.741 51.7536 109.995 57.2427C104.727 59.5092 99.5973 62.187 94.6992 65.3941L106.777 77.4774L169.799 140.499L222.511 193.211L234.61 205.31C237.817 200.417 240.49 195.283 242.762 190.02L229.907 177.166L229.913 177.16Z" fill="#0C0E10"/>
</svg>
