<svg width="300" height="300" viewBox="0 0 300 300" fill="none" xmlns="http://www.w3.org/2000/svg">
<circle cx="150" cy="150" r="150" fill="white"/>
<circle cx="149.998" cy="150.001" r="128.568" fill="#0C0E10"/>
<circle cx="150.001" cy="150" r="116.251" fill="#1EEEAF"/>
<path d="M149.998 74.999C177.744 74.999 201.97 90.0705 214.945 112.471L201.961 119.987C191.586 102.062 172.202 89.999 149.998 89.999C116.86 89.9992 89.9981 116.862 89.998 150C89.998 183.138 116.86 210.001 149.998 210.001C172.177 210.001 191.549 197.963 201.933 180.067L214.924 187.567C201.944 209.947 177.732 225.001 149.998 225.001C108.577 225.001 74.998 191.421 74.998 150C74.9981 108.579 108.577 74.9992 149.998 74.999ZM149.997 135C155.543 135 160.377 138.021 162.973 142.5H224.998V157.501H162.973C160.381 161.98 155.547 165.001 149.997 165.001C141.714 165.001 134.997 158.283 134.997 150C134.997 141.717 141.714 135 149.997 135Z" fill="#0C0E10"/>
</svg>
