<svg width="182" height="182" viewBox="0 0 182 182" fill="none" xmlns="http://www.w3.org/2000/svg">
<circle cx="91.0028" cy="91.0028" r="90.9091" fill="#AFCFFF"/>
<circle cx="91.0059" cy="91.0059" r="77.92" fill="#1267E6"/>
<path d="M91.002 45.5469C107.818 45.5469 122.5 54.681 130.363 68.2568L122.494 72.8125C116.206 61.9488 104.459 54.6377 91.002 54.6377C70.9184 54.6377 54.6377 70.9184 54.6377 91.002C54.6377 111.085 70.9184 127.366 91.002 127.366C104.444 127.366 116.184 120.07 122.477 109.225L130.351 113.77C122.484 127.333 107.81 136.457 91.002 136.457C65.8982 136.457 45.5469 116.106 45.5469 91.002C45.5469 65.8982 65.8982 45.5469 91.002 45.5469ZM91.002 81.9111C94.3629 81.9112 97.2919 83.7416 98.8652 86.4561H136.457V95.5479H98.8652C97.2945 98.2622 94.3654 100.093 91.002 100.093C85.9817 100.093 81.9112 96.0222 81.9111 91.002C81.9111 85.9817 85.9817 81.9111 91.002 81.9111Z" fill="white"/>
</svg>
